HIERARCHY
ROOT hip
{
  OFFSET 0 0 0
  CHANNELS 6 Xposition Yposition Zposition Zrotation Yrotation Xrotation
  JOINT abdomen
  {
    OFFSET 0 20.6881 -0.73152
    CHANNELS 3 Zrotation Xrotation Yrotation
    JOINT chest
    {
      OFFSET 0 11.7043 -0.48768
      CHANNELS 3 Zrotation Xrotation Yrotation
      JOINT neck
      {
        OFFSET 0 22.1894 -2.19456
        CHANNELS 3 Zrotation Xrotation Yrotation
        JOINT head
        {
          OFFSET -0.24384 7.07133 1.2192
          CHANNELS 3 Zrotation Xrotation Yrotation
          JOINT leftEye
          {
            OFFSET 4.14528 8.04674 8.04672
            CHANNELS 3 Zrotation Xrotation Yrotation
            End Site
            {
              OFFSET 1 0 0
            }
          }
          JOINT rightEye
          {
            OFFSET -3.6576 8.04674 8.04672
            CHANNELS 3 Zrotation Xrotation Yrotation
            End Site
            {
              OFFSET 1 0 0
            }
          }
        }
      }
      JOINT rCollar
      {
        OFFSET -2.68224 19.2634 -4.8768
        CHANNELS 3 Zrotation Xrotation Yrotation
        JOINT rShldr
        {
          OFFSET -8.77824 -1.95073 1.46304
          CHANNELS 3 Zrotation Xrotation Yrotation
          JOINT rForeArm
          {
            OFFSET -28.1742 -1.7115 0.48768
            CHANNELS 3 Zrotation Xrotation Yrotation
            JOINT rHand
            {
              OFFSET -22.5879 0.773209 7.07136
              CHANNELS 3 Zrotation Xrotation Yrotation
              JOINT rThumb1
              {
                OFFSET -1.2192 -0.487915 3.41376
                CHANNELS 3 Zrotation Xrotation Yrotation
                JOINT rThumb2
                {
                  OFFSET -3.37035 -0.52449 3.41376
                  CHANNELS 3 Zrotation Xrotation Yrotation
                  End Site
                  {
                    OFFSET -1.78271 -1.18214 1.43049
                  }
                }
              }
              JOINT rIndex1
              {
                OFFSET -7.75947 0.938293 5.60832
                CHANNELS 3 Zrotation Xrotation Yrotation
                JOINT rIndex2
                {
                  OFFSET -2.54057 -0.884171 1.56538
                  CHANNELS 3 Zrotation Xrotation Yrotation
                  End Site
                  {
                    OFFSET -1.62519 -0.234802 1.16502
                  }
                }
              }
              JOINT rMid1
              {
                OFFSET -8.24714 1.18213 3.41376
                CHANNELS 3 Zrotation Xrotation Yrotation
                JOINT rMid2
                {
                  OFFSET -3.10165 -0.590103 1.0647
                  CHANNELS 3 Zrotation Xrotation Yrotation
                  End Site
                  {
                    OFFSET -2.48547 -0.328903 0.83742
                  }
                }
              }
              JOINT rRing1
              {
                OFFSET -8.82822 0.546677 1.51678
                CHANNELS 3 Zrotation Xrotation Yrotation
                JOINT rRing2
                {
                  OFFSET -2.60934 -0.819778 -0.0198488
                  CHANNELS 3 Zrotation Xrotation Yrotation
                  End Site
                  {
                    OFFSET -2.33842 -0.294052 0.168128
                  }
                }
              }
              JOINT rPinky1
              {
                OFFSET -8.27202 -0.0477905 -0.4584
                CHANNELS 3 Zrotation Xrotation Yrotation
                JOINT rPinky2
                {
                  OFFSET -1.82734 -0.647385 -0.700984
                  CHANNELS 3 Zrotation Xrotation Yrotation
                  End Site
                  {
                    OFFSET -1.69225 -0.51767 -0.607171
                  }
                }
              }
            }
          }
        }
      }
      JOINT lCollar
      {
        OFFSET 2.68224 19.2634 -4.8768
        CHANNELS 3 Zrotation Xrotation Yrotation
        JOINT lShldr
        {
          OFFSET 8.77824 -1.95073 1.46304
          CHANNELS 3 Zrotation Xrotation Yrotation
          JOINT lForeArm
          {
            OFFSET 28.1742 -1.7115 0.48768
            CHANNELS 3 Zrotation Xrotation Yrotation
            JOINT lHand
            {
              OFFSET 22.5879 0.773209 7.07136
              CHANNELS 3 Zrotation Xrotation Yrotation
              JOINT lThumb1
              {
                OFFSET 1.2192 -0.487915 3.41376
                CHANNELS 3 Zrotation Xrotation Yrotation
                JOINT lThumb2
                {
                  OFFSET 3.37035 -0.52449 3.41376
                  CHANNELS 3 Zrotation Xrotation Yrotation
                  End Site
                  {
                    OFFSET 1.78271 -1.18214 1.43049
                  }
                }
              }
              JOINT lIndex1
              {
                OFFSET 7.75947 0.938293 5.60832
                CHANNELS 3 Zrotation Xrotation Yrotation
                JOINT lIndex2
                {
                  OFFSET 2.54057 -0.884171 1.56538
                  CHANNELS 3 Zrotation Xrotation Yrotation
                  End Site
                  {
                    OFFSET 1.62519 -0.234802 1.16502
                  }
                }
              }
              JOINT lMid1
              {
                OFFSET 8.24714 1.18213 3.41376
                CHANNELS 3 Zrotation Xrotation Yrotation
                JOINT lMid2
                {
                  OFFSET 3.10165 -0.590103 1.0647
                  CHANNELS 3 Zrotation Xrotation Yrotation
                  End Site
                  {
                    OFFSET 2.48547 -0.328903 0.83742
                  }
                }
              }
              JOINT lRing1
              {
                OFFSET 8.82822 0.546677 1.51678
                CHANNELS 3 Zrotation Xrotation Yrotation
                JOINT lRing2
                {
                  OFFSET 2.60934 -0.819778 -0.0198488
                  CHANNELS 3 Zrotation Xrotation Yrotation
                  End Site
                  {
                    OFFSET 2.33842 -0.294052 0.168128
                  }
                }
              }
              JOINT lPinky1
              {
                OFFSET 8.27202 -0.0477905 -0.4584
                CHANNELS 3 Zrotation Xrotation Yrotation
                JOINT lPinky2
                {
                  OFFSET 1.82734 -0.647385 -0.700984
                  CHANNELS 3 Zrotation Xrotation Yrotation
                  End Site
                  {
                    OFFSET 1.69225 -0.51767 -0.607171
                  }
                }
              }
            }
          }
        }
      }
    }
  }
  JOINT rButtock
  {
    OFFSET -8.77824 4.35084 1.2192
    CHANNELS 3 Zrotation Xrotation Yrotation
    JOINT rThigh
    {
      OFFSET 0 -1.70687 -2.19456
      CHANNELS 3 Zrotation Xrotation Yrotation
      JOINT rShin
      {
        OFFSET 0 -36.8199 0.73152
        CHANNELS 3 Zrotation Xrotation Yrotation
        JOINT rFoot
        {
          OFFSET 0.73152 -45.1104 -5.12064
          CHANNELS 3 Zrotation Xrotation Yrotation
          End Site
          {
            OFFSET -1.1221 -3.69964 12.103
          }
        }
      }
    }
  }
  JOINT lButtock
  {
    OFFSET 8.77824 4.35084 1.2192
    CHANNELS 3 Zrotation Xrotation Yrotation
    JOINT lThigh
    {
      OFFSET 0 -1.70687 -2.19456
      CHANNELS 3 Zrotation Xrotation Yrotation
      JOINT lShin
      {
        OFFSET 0 -36.8199 0.73152
        CHANNELS 3 Zrotation Xrotation Yrotation
        JOINT lFoot
        {
          OFFSET -0.73152 -45.1104 -5.12064
          CHANNELS 3 Zrotation Xrotation Yrotation
          End Site
          {
            OFFSET 1.1221 -3.69964 12.103
          }
        }
      }
    }
  }
}
MOTION
Frames:	7
Frame Time:	0.00833333
31.4101 84.2292 42.4562 175.352 -16.3657 -178.929 -3.10767 14.0652 1.5132 1.92952 -5.16878 0.243187 -12.3056 0.658965 -0.759342 12.8027 22.7751 -6.90556 -0.0 0.0 0.0 -0.0 0.0 0.0 -2.11197e-13 1.06597e-13 2.6834e-13 77.8689 -1.71087 -2.94267 -15.0447 -7.8291 27.6806 -0.0498624 6.3704 0.89903 6.1155e-10 2.05309e-09 1.52034e-09 1.06268e-09 3.55089e-09 2.62676e-09 6.11554e-10 2.0531e-09 1.52032e-09 7.73091 5.47488 0.417314 6.11549e-10 2.05309e-09 1.52035e-09 2.90554 0.965183 0.102902 6.11541e-10 2.0531e-09 1.52034e-09 10.2786 0.731801 0.0259123 6.11547e-10 2.05309e-09 1.52035e-09 2.22167 -0.733487 -0.20892 -2.11481e-13 1.06598e-13 2.68046e-13 -79.9289 26.0228 -2.90334 15.6182 -8.33761 -28.8697 0.0253019 4.53198 -0.638276 6.1168e-10 -1.45618e-09 1.78258e-09 1.06278e-09 -2.51866e-09 3.08243e-09 6.11678e-10 -1.45618e-09 1.78258e-09 -7.73091 5.47488 -0.417314 6.11683e-10 -1.45618e-09 1.78258e-09 -2.90554 0.965183 -0.102902 6.11676e-10 -1.45618e-09 1.78257e-09 -10.2786 0.731801 -0.0259123 6.11676e-10 -1.45618e-09 1.78257e-09 -2.22167 -0.733487 0.20892 -2.03217e-16 0.0 -3.88251e-19 -16.8583 -15.5712 7.83686 -0.254894 35.2576 0.610324 -2.73937 -8.21852 -9.64228 2.03217e-16 0.0 3.88251e-19 0.547741 -7.43559 -4.61293 0.0274797 19.9093 -0.284212 -1.29114 -10.3458 -6.41048
31.0405 84.2811 42.6514 175.336 -15.9738 -178.982 -3.27512 14.141 1.57999 2.02473 -5.21783 0.25837 -12.3246 0.625231 -0.767183 12.9241 22.8845 -6.9991 -0.0 0.0 0.0 -0.0 0.0 0.0 -8.86177e-14 4.13472e-14 -3.56042e-14 77.9947 -1.23811 -2.92519 -15.0142 -7.80262 27.6176 -0.0561607 6.75093 0.953245 1.66327e-09 -1.59694e-09 6.42863e-10 2.87859e-09 -2.76163e-09 1.09819e-09 1.66328e-09 -1.59694e-09 6.42838e-10 7.73091 5.47488 0.417314 1.66327e-09 -1.59694e-09 6.42863e-10 2.90554 0.965183 0.102902 1.66327e-09 -1.59694e-09 6.42857e-10 10.2786 0.731801 0.0259123 1.66327e-09 -1.59694e-09 6.42862e-10 2.22167 -0.733487 -0.20892 -8.88283e-14 4.13457e-14 -3.58651e-14 -79.7863 26.3932 -2.8389 15.7164 -8.42689 -29.075 0.0247076 4.4704 -0.629573 1.18887e-09 2.60306e-10 5.70347e-10 2.05644e-09 4.49995e-10 9.81713e-10 1.18887e-09 2.60306e-10 5.7035e-10 -7.73091 5.47488 -0.417314 1.18887e-09 2.60303e-10 5.70346e-10 -2.90554 0.965183 -0.102902 1.18886e-09 2.60304e-10 5.70344e-10 -10.2786 0.731801 -0.0259123 1.18887e-09 2.60305e-10 5.7034e-10 -2.22167 -0.733487 0.20892 -2.03217e-16 0.0 -3.88251e-19 -16.4702 -16.0459 7.02376 -0.266612 36.0692 0.636045 -2.6654 -9.72932 -8.44488 2.03217e-16 0.0 3.88251e-19 0.269035 -7.44673 -4.44032 0.0263826 20.0817 -0.2887 -1.2198 -10.3322 -6.15981
30.6791 84.3078 42.8256 175.391 -15.6269 -179.082 -3.41757 14.2209 1.62282 2.12146 -5.27908 0.268224 -12.3277 0.602929 -0.768307 13.0257 22.9621 -7.07156 -0.0 0.0 0.0 -0.0 0.0 0.0 3.50776e-14 -2.15174e-14 -3.559e-13 78.1177 -0.761356 -2.91251 -14.9806 -7.77356 27.5486 -0.0639256 7.19008 1.01591 2.71988e-09 -5.28649e-09 -3.186e-10 4.70224e-09 -9.14194e-09 -5.75893e-10 2.71989e-09 -5.28649e-09 -3.18626e-10 7.73091 5.47488 0.417314 2.71988e-09 -5.28649e-09 -3.18602e-10 2.90554 0.965183 0.102902 2.71989e-09 -5.28649e-09 -3.18606e-10 10.2786 0.731801 0.0259123 2.71988e-09 -5.28649e-09 -3.18607e-10 2.22167 -0.733487 -0.20892 3.49443e-14 -2.15204e-14 -3.56122e-13 -79.6587 26.7269 -2.73923 15.8225 -8.52371 -29.2982 0.023571 4.36479 -0.614642 1.79779e-09 2.13062e-09 -6.60244e-10 3.10499e-09 3.68484e-09 -1.15092e-09 1.79779e-09 2.13062e-09 -6.6024e-10 -7.73091 5.47488 -0.417314 1.79779e-09 2.13062e-09 -6.60245e-10 -2.90554 0.965183 -0.102902 1.79779e-09 2.13062e-09 -6.60247e-10 -10.2786 0.731801 -0.0259123 1.7978e-09 2.13062e-09 -6.60253e-10 -2.22167 -0.733487 0.20892 -2.03217e-16 0.0 -3.88251e-19 -16.0348 -16.4876 6.17555 -0.27912 36.8732 0.660519 -2.48788 -11.2459 -7.11258 2.03217e-16 0.0 3.88251e-19 0.015362 -7.48242 -4.30644 0.0256811 20.2959 -0.293643 -1.14214 -10.3243 -5.8806
30.3506 84.331 42.9729 175.569 -15.2613 -179.209 -3.50181 14.2728 1.62546 2.20859 -5.33316 0.26918 -12.3006 0.595648 -0.756441 13.0613 22.9799 -7.09359 -0.0 0.0 0.0 -0.0 0.0 0.0 9.94189e-14 -4.77066e-14 -5.7245e-13 78.2412 -0.322778 -2.88957 -14.9521 -7.74892 27.4901 -0.0724725 7.65808 1.08279 3.44655e-09 -7.60063e-09 -1.04128e-09 5.95511e-09 -1.31424e-08 -1.83384e-09 3.44656e-09 -7.60063e-09 -1.04131e-09 7.73091 5.47488 0.417314 3.44655e-09 -7.60063e-09 -1.04128e-09 2.90554 0.965183 0.102902 3.44656e-09 -7.60063e-09 -1.04129e-09 10.2786 0.731801 0.0259123 3.44655e-09 -7.60063e-09 -1.04129e-09 2.22167 -0.733487 -0.20892 9.93227e-14 -4.77106e-14 -5.72649e-13 -79.5585 26.9794 -2.63027 15.9166 -8.61002 -29.4969 0.0216157 4.19341 -0.590411 2.3135e-09 3.60438e-09 -1.36039e-09 3.99435e-09 6.23417e-09 -2.36509e-09 2.31349e-09 3.60438e-09 -1.36038e-09 -7.73091 5.47488 -0.417314 2.3135e-09 3.60438e-09 -1.36039e-09 -2.90554 0.965183 -0.102902 2.31349e-09 3.60438e-09 -1.36039e-09 -10.2786 0.731801 -0.0259123 2.3135e-09 3.60438e-09 -1.3604e-09 -2.22167 -0.733487 0.20892 -2.03217e-16 0.0 -3.88251e-19 -15.5456 -16.9047 5.29099 -0.292213 37.6362 0.681279 -2.24725 -12.5329 -5.8699 2.03217e-16 0.0 3.88251e-19 -0.204349 -7.56618 -4.2283 0.0255867 20.5632 -0.299211 -1.0583 -10.3396 -5.56675
30.0319 84.3182 43.1386 175.675 -14.8819 -179.236 -3.50427 14.2881 1.56895 2.27939 -5.38716 0.257092 -12.2236 0.61477 -0.722402 12.9905 22.9149 -7.03929 -0.0 0.0 0.0 -0.0 0.0 0.0 7.30539e-14 -1.46584e-14 -6.62217e-13 78.3642 0.074 -2.85774 -14.9279 -7.72798 27.4402 -0.082807 8.21043 1.16185 3.83571e-09 -8.15835e-09 -1.5045e-09 6.62299e-09 -1.41028e-08 -2.64012e-09 3.83571e-09 -8.15835e-09 -1.50453e-09 7.73091 5.47488 0.417314 3.83571e-09 -8.15835e-09 -1.5045e-09 2.90554 0.965183 0.102902 3.83572e-09 -8.15835e-09 -1.50451e-09 10.2786 0.731801 0.0259123 3.83571e-09 -8.15835e-09 -1.50451e-09 2.22167 -0.733487 -0.20892 7.29288e-14 -1.46632e-14 -6.6242e-13 -79.4967 27.1345 -2.50212 15.9947 -8.68225 -29.6618 0.0187817 3.92938 -0.553101 2.82366e-09 4.74496e-09 -1.30173e-09 4.87712e-09 8.20797e-09 -2.26596e-09 2.82366e-09 4.74496e-09 -1.30172e-09 -7.73091 5.47488 -0.417314 2.82366e-09 4.74496e-09 -1.30173e-09 -2.90554 0.965183 -0.102902 2.82366e-09 4.74496e-09 -1.30173e-09 -10.2786 0.731801 -0.0259123 2.82367e-09 4.74496e-09 -1.30173e-09 -2.22167 -0.733487 0.20892 -2.03217e-16 0.0 -3.88251e-19 -14.9973 -17.2971 4.34341 -0.30571 38.3539 0.696625 -1.95642 -13.5165 -4.70966 2.03217e-16 0.0 3.88251e-19 -0.385103 -7.72013 -4.2334 0.026312 20.9105 -0.305795 -0.96501 -10.3862 -5.20166
29.7444 84.2748 43.2999 175.899 -14.5237 -179.322 -3.44751 14.284 1.46681 2.341 -5.44734 0.234922 -12.1096 0.654905 -0.672038 12.8477 22.7871 -6.93046 -0.0 0.0 0.0 -0.0 0.0 0.0 -6.69093e-15 5.48663e-14 -6.86257e-13 78.4857 0.448938 -2.82321 -14.9045 -7.7079 27.3923 -0.0958673 8.84182 1.25253 4.03869e-09 -7.71551e-09 -1.8586e-09 6.96774e-09 -1.33311e-08 -3.2562e-09 4.03869e-09 -7.71551e-09 -1.85862e-09 7.73091 5.47488 0.417314 4.03869e-09 -7.71551e-09 -1.85861e-09 2.90554 0.965183 0.102902 4.0387e-09 -7.71551e-09 -1.85861e-09 10.2786 0.731801 0.0259123 4.03869e-09 -7.71551e-09 -1.85861e-09 2.22167 -0.733487 -0.20892 -6.88274e-15 5.48614e-14 -6.86478e-13 -79.4638 27.2173 -2.34661 16.0671 -8.74973 -29.8148 0.0156151 3.59131 -0.505377 3.3546e-09 5.77585e-09 -8.04293e-10 5.79757e-09 9.99257e-09 -1.40755e-09 3.3546e-09 5.77585e-09 -8.04285e-10 -7.73091 5.47488 -0.417314 3.3546e-09 5.77584e-09 -8.04294e-10 -2.90554 0.965183 -0.102902 3.3546e-09 5.77584e-09 -8.04294e-10 -10.2786 0.731801 -0.0259123 3.35461e-09 5.77585e-09 -8.04299e-10 -2.22167 -0.733487 0.20892 -2.03217e-16 0.0 -3.88251e-19 -14.3941 -17.6594 3.34205 -0.319383 39.0426 0.707982 -1.61096 -14.3213 -3.53377 2.03217e-16 0.0 3.88251e-19 -0.533083 -7.92643 -4.30513 0.027753 21.3238 -0.313219 -0.862537 -10.4534 -4.79342
29.4586 84.2646 43.463 176.121 -14.2533 -179.394 -3.36746 14.2666 1.35151 2.40309 -5.49301 0.209772 -11.9935 0.69449 -0.621626 12.698 22.633 -6.80919 -0.0 0.0 0.0 -0.0 0.0 0.0 -9.72679e-14 1.27174e-13 -6.50611e-13 78.6076 0.795237 -2.7781 -14.8865 -7.69244 27.3553 -0.109637 9.43134 1.33759 3.95903e-09 -6.5625e-09 -2.03736e-09 6.82492e-09 -1.13318e-08 -3.56591e-09 3.95903e-09 -6.5625e-09 -2.03738e-09 7.73091 5.47488 0.417314 3.95903e-09 -6.5625e-09 -2.03736e-09 2.90554 0.965183 0.102902 3.95904e-09 -6.56249e-09 -2.03736e-09 10.2786 0.731801 0.0259123 3.95903e-09 -6.56249e-09 -2.03736e-09 2.22167 -0.733487 -0.20892 -9.75273e-14 1.27169e-13 -6.50851e-13 -79.4403 27.2452 -2.19275 16.1359 -8.81408 -29.9601 0.0126647 3.22574 -0.453822 3.68929e-09 6.38683e-09 -1.41864e-10 6.37915e-09 1.10507e-08 -2.62689e-10 3.68928e-09 6.38683e-09 -1.41855e-10 -7.73091 5.47488 -0.417314 3.68929e-09 6.38683e-09 -1.41866e-10 -2.90554 0.965183 -0.102902 3.68929e-09 6.38683e-09 -1.41864e-10 -10.2786 0.731801 -0.0259123 3.68929e-09 6.38683e-09 -1.41868e-10 -2.22167 -0.733487 0.20892 -2.03217e-16 0.0 -3.88251e-19 -13.7429 -17.9929 2.33981 -0.332896 39.6996 0.717515 -1.25775 -15.0107 -2.43633 2.03217e-16 0.0 3.88251e-19 -0.655844 -8.14867 -4.39427 0.0296232 21.7533 -0.320797 -0.75633 -10.5307 -4.37303
